<svg width="900" height="900" viewBox="0 0 900 900" fill="none" xmlns="http://www.w3.org/2000/svg">
  <defs>
    <linearGradient id="bg" x1="120" y1="90" x2="780" y2="810" gradientUnits="userSpaceOnUse">
      <stop stop-color="#E4F5FF"/>
      <stop offset="0.56" stop-color="#97D8FF"/>
      <stop offset="1" stop-color="#1F6B9B"/>
    </linearGradient>
    <linearGradient id="bottle" x1="340" y1="220" x2="560" y2="700" gradientUnits="userSpaceOnUse">
      <stop stop-color="#FFFFFF" stop-opacity="0.98"/>
      <stop offset="1" stop-color="#DDF3FF" stop-opacity="0.65"/>
    </linearGradient>
  </defs>
  <rect width="900" height="900" rx="72" fill="url(#bg)"/>
  <circle cx="170" cy="190" r="100" fill="white" fill-opacity="0.14"/>
  <circle cx="740" cy="710" r="170" fill="white" fill-opacity="0.12"/>
  <rect x="292" y="220" width="316" height="430" rx="158" fill="url(#bottle)"/>
  <rect x="358" y="154" width="184" height="94" rx="30" fill="#FFFFFF" fill-opacity="0.92"/>
  <rect x="381" y="124" width="138" height="42" rx="21" fill="#1D5A84"/>
  <circle cx="450" cy="446" r="110" fill="#7ED6FF" fill-opacity="0.34"/>
  <path d="M450 338C487 379 525 415 525 472C525 531 486 576 450 576C414 576 375 531 375 472C375 415 413 379 450 338Z" fill="#AEE8FF"/>
  <text x="450" y="760" text-anchor="middle" font-family="Inter, Arial, sans-serif" font-size="50" font-weight="800" fill="white" letter-spacing="6">CLEANSER</text>
</svg>