<svg width="900" height="900" viewBox="0 0 900 900" fill="none" xmlns="http://www.w3.org/2000/svg">
  <defs>
    <linearGradient id="bg" x1="120" y1="100" x2="790" y2="820" gradientUnits="userSpaceOnUse">
      <stop stop-color="#E9FFF0"/>
      <stop offset="0.55" stop-color="#95E7B0"/>
      <stop offset="1" stop-color="#176940"/>
    </linearGradient>
  </defs>
  <rect width="900" height="900" rx="72" fill="url(#bg)"/>
  <circle cx="170" cy="180" r="100" fill="white" fill-opacity="0.14"/>
  <circle cx="740" cy="720" r="170" fill="white" fill-opacity="0.12"/>
  <rect x="310" y="220" width="280" height="426" rx="140" fill="white" fill-opacity="0.88"/>
  <rect x="358" y="156" width="184" height="92" rx="30" fill="#FFFFFF" fill-opacity="0.95"/>
  <path d="M450 332C497 388 522 430 522 478C522 533 491 578 450 578C409 578 378 533 378 478C378 430 403 388 450 332Z" fill="#7BE3A0"/>
  <path d="M388 456C412 428 440 414 450 414C460 414 488 428 512 456" stroke="#176940" stroke-width="18" stroke-linecap="round"/>
  <text x="450" y="760" text-anchor="middle" font-family="Inter, Arial, sans-serif" font-size="44" font-weight="800" fill="white" letter-spacing="4">PROBIOTIC</text>
</svg>